<svg xmlns="http://www.w3.org/2000/svg" width="100" height="50" viewBox="0 0 100 50"><rect width="100%" height="100%" fill="#DDDDDD"/><path fill="#999999" d="M22.275 18.425v5.45h.57q.34 0 .57-.09.22-.1.38-.31l3.6-4.54q.22-.29.47-.4t.62-.11h2.09l-4.38 5.4q-.39.5-.8.71.29.1.53.3.24.19.46.51l4.52 6.09h-2.14q-.43 0-.64-.12t-.36-.36l-3.68-4.8q-.17-.25-.39-.35-.23-.09-.65-.09h-.77v5.72h-2.42v-13.01zm15.16 11.06q.7 0 1.26-.24.55-.23.93-.65.38-.43.58-1.03t.2-1.35v-7.79h2.42v7.79q0 1.16-.37 2.15-.38.98-1.07 1.7-.7.71-1.7 1.11t-2.25.4q-1.26 0-2.26-.4t-1.7-1.11q-.69-.72-1.07-1.7-.37-.99-.37-2.15v-7.79h2.42v7.78q0 .75.2 1.35.21.6.59 1.03t.93.66q.56.24 1.26.24m10.55.06h2.45q.67 0 1.13-.16t.73-.43q.28-.27.4-.63t.12-.77q0-.42-.13-.76-.14-.34-.43-.58-.28-.23-.74-.36-.45-.13-1.09-.13h-2.44zm2.06-9.25h-2.06v3.76h1.92q1.25 0 1.88-.45.64-.45.64-1.43 0-1.02-.58-1.45t-1.8-.43m-4.48-1.87h4.48q1.28 0 2.19.24t1.49.69.85 1.09.27 1.44q0 .46-.14.88-.13.42-.42.78-.28.37-.72.66-.43.3-1.04.51 2.69.6 2.69 2.89 0 .83-.32 1.53-.31.71-.92 1.22-.6.5-1.48.79t-2.02.29h-4.91zm14.27 6.19h1.51q.69 0 1.2-.17.5-.17.83-.48.33-.3.49-.71.17-.42.17-.91 0-.99-.66-1.52-.65-.53-1.99-.53h-1.55zm4.48 2.01 3.26 4.81h-2.19q-.62 0-.9-.49l-2.73-4.16q-.15-.24-.34-.34-.18-.1-.54-.1h-1.04v5.09h-2.42v-13.01h3.97q1.32 0 2.27.27t1.56.77q.61.49.89 1.18.29.69.29 1.52 0 .66-.19 1.24-.19.59-.56 1.06-.36.48-.9.84-.53.36-1.22.57.24.13.43.32.2.18.36.43m7.41-.1h4.14l-1.58-4.33q-.12-.29-.25-.69-.12-.39-.25-.85-.12.46-.24.86-.13.4-.24.69zm3.3-8.1 5.12 13.01h-1.88q-.31 0-.51-.16t-.3-.39l-.97-2.65h-5.39l-.97 2.65q-.07.21-.28.38t-.51.17h-1.89l5.12-13.01z"/></svg>